<svg width="24" height="24" viewBox="0 0 24 24" fill="none" xmlns="http://www.w3.org/2000/svg">
  <defs>
    <path id="linkedin"
      d="M12 2C6.47708 2 2 6.47708 2 12C2 17.5229 6.47708 22 12 22C17.5229 22 22 17.5229 22 12C22 6.47708 17.5229 2 12 2ZM9.55208 16.1448H7.52708V9.62812H9.55208V16.1448ZM8.52708 8.82812C7.8875 8.82812 7.47396 8.375 7.47396 7.81458C7.47396 7.24271 7.9 6.80312 8.55312 6.80312C9.20625 6.80312 9.60625 7.24271 9.61875 7.81458C9.61875 8.375 9.20625 8.82812 8.52708 8.82812ZM16.9479 16.1448H14.9229V12.5333C14.9229 11.6927 14.6292 11.1219 13.8969 11.1219C13.3375 11.1219 13.0052 11.5083 12.8583 11.8802C12.8042 12.0125 12.7906 12.2 12.7906 12.3865V16.1437H10.7646V11.7063C10.7646 10.8927 10.7385 10.2125 10.7115 9.62708H12.4708L12.5635 10.5323H12.6042C12.8708 10.1073 13.524 9.48021 14.6167 9.48021C15.949 9.48021 16.9479 10.3729 16.9479 12.2917V16.1448Z"
      fill="currentColor" />
    <path id="github"
      d="M12 2C6.47664 2 2 6.58996 2 12.2531C2 16.7824 4.86445 20.6261 8.83878 21.983C9.33908 22.0755 9.51955 21.7599 9.51955 21.4886C9.51955 21.2449 9.51153 20.5993 9.50852 19.7451C6.72629 20.3639 6.13876 18.3696 6.13876 18.3696C5.68558 17.1854 5.02887 16.8698 5.02887 16.8698C4.12152 16.2335 5.09806 16.2479 5.09806 16.2479C6.10267 16.3198 6.62904 17.3046 6.62904 17.3046C7.52136 18.8713 8.97112 18.419 9.5386 18.1568C9.62984 17.4938 9.89052 17.0415 10.1753 16.7855C7.95548 16.5275 5.62142 15.6475 5.62142 11.7175C5.62142 10.6001 6.01143 9.68316 6.64809 8.96769C6.54682 8.70761 6.20092 7.6642 6.74734 6.2538C6.74734 6.2538 7.58652 5.97728 9.49649 7.30338C10.3122 7.07585 11.1536 6.95972 11.999 6.95797C12.8444 6.95938 13.6859 7.07552 14.5015 7.30338C16.4125 5.97625 17.2507 6.2538 17.2507 6.2538C17.7971 7.6642 17.4542 8.70761 17.3499 8.96769C17.9916 9.68316 18.3766 10.5991 18.3766 11.7175C18.3766 15.6578 16.0405 16.5234 13.8127 16.7773C14.1686 17.0939 14.4895 17.7189 14.4895 18.675C14.4895 20.0463 14.4774 21.1524 14.4774 21.4886C14.4774 21.763 14.6559 22.0817 15.1662 21.981C19.1386 20.622 22 16.7814 22 12.2531C22 6.58996 17.5234 2 12 2Z"
      fill="currentColor" />
    <g id="behance">
      <path
        d="M14.7598 11.19C14.6205 11.1895 14.4827 11.218 14.3551 11.2738C14.2275 11.3296 14.113 11.4114 14.0188 11.514C13.9247 11.6166 13.853 11.7378 13.8084 11.8697C13.7638 12.0016 13.7472 12.1414 13.7598 12.28H15.8198C15.8331 12.1362 15.815 11.9911 15.7669 11.8548C15.7188 11.7186 15.6417 11.5944 15.5409 11.4908C15.4402 11.3872 15.3182 11.3067 15.1833 11.2548C15.0485 11.2028 14.904 11.1808 14.7598 11.19ZM9.48977 12.3H8.25977V14.24H9.25977C10.2598 14.24 10.6998 13.91 10.6998 13.24C10.6998 12.57 10.2398 12.3 9.48977 12.3ZM10.3598 10.52C10.3598 9.99004 10.0098 9.67004 9.40977 9.67004H8.25977V11.41H9.10977C9.99977 11.41 10.3598 11.09 10.3598 10.52Z"
        fill="currentColor" />
      <path
        d="M12 2C10.0222 2 8.08879 2.58649 6.4443 3.6853C4.79981 4.78412 3.51809 6.3459 2.76121 8.17317C2.00433 10.0004 1.8063 12.0111 2.19215 13.9509C2.578 15.8907 3.53041 17.6725 4.92894 19.0711C6.32746 20.4696 8.10929 21.422 10.0491 21.8079C11.9889 22.1937 13.9996 21.9957 15.8268 21.2388C17.6541 20.4819 19.2159 19.2002 20.3147 17.5557C21.4135 15.9112 22 13.9778 22 12C22 10.6868 21.7413 9.38642 21.2388 8.17317C20.7363 6.95991 19.9997 5.85752 19.0711 4.92893C18.1425 4.00035 17.0401 3.26375 15.8268 2.7612C14.6136 2.25866 13.3132 2 12 2ZM9.7 15.2H7V8.7H9.7C10.87 8.7 11.64 9.31 11.64 10.3C11.6538 10.6326 11.5486 10.9592 11.3434 11.2213C11.1381 11.4834 10.8462 11.6637 10.52 11.73C10.7267 11.7348 10.9303 11.7817 11.1183 11.8679C11.3063 11.9541 11.4747 12.0777 11.6132 12.2312C11.7518 12.3848 11.8575 12.5649 11.924 12.7607C11.9905 12.9565 12.0164 13.1639 12 13.37C12 14.53 11 15.2 9.7 15.2ZM13.25 9.2H16.25V9.7H13.25V9.2ZM17 13.05H13.7V13.19C13.6828 13.342 13.6984 13.4958 13.7457 13.6413C13.793 13.7867 13.8709 13.9203 13.9742 14.0331C14.0775 14.1458 14.2037 14.2351 14.3445 14.295C14.4852 14.3548 14.6371 14.3838 14.79 14.38C15.0047 14.4133 15.2241 14.3679 15.4079 14.2522C15.5917 14.1364 15.7274 13.958 15.79 13.75H17C16.8923 14.23 16.6114 14.6535 16.211 14.9394C15.8107 15.2254 15.319 15.3538 14.83 15.3C14.5175 15.3316 14.2018 15.2943 13.9052 15.1907C13.6086 15.0871 13.3384 14.9199 13.1134 14.7006C12.8884 14.4814 12.7142 14.2155 12.6031 13.9217C12.4919 13.6279 12.4465 13.3133 12.47 13V12.56C12.4488 12.2565 12.4934 11.9519 12.6009 11.6673C12.7084 11.3826 12.8762 11.1246 13.0928 10.9109C13.3093 10.6972 13.5696 10.5328 13.8556 10.4291C14.1417 10.3254 14.4468 10.2847 14.75 10.31C15.0522 10.2906 15.3551 10.3362 15.6382 10.4437C15.9213 10.5512 16.1781 10.7182 16.3913 10.9332C16.6045 11.1483 16.7691 11.4066 16.8741 11.6906C16.9791 11.9747 17.0221 12.278 17 12.58V13.05Z"
        fill="currentColor" />
    </g>
    <g id="email">
      <path d="M8 15V9.93396L12 12.6L16 9.93396V15H8Z" fill="currentColor" />
      <path d="M12 11.4L8.40002 9H15.6L12 11.4Z" fill="currentColor" />
      <path fill-rule="evenodd" clip-rule="evenodd"
        d="M12 2C6.47717 2 2 6.47717 2 12C2 17.5228 6.47717 22 12 22C17.5228 22 22 17.5228 22 12C22 6.47717 17.5228 2 12 2ZM7.29291 15.7072C7.48041 15.8947 7.7348 16 8 16H16C16.2652 16 16.5196 15.8947 16.7071 15.7072C16.8947 15.5195 17 15.2653 17 15V9C17 8.73474 16.8947 8.48047 16.7071 8.29285C16.5196 8.10535 16.2652 8 16 8H8C7.74213 7.99976 7.4942 8.09912 7.30786 8.27734C7.12152 8.45557 7.01123 8.69885 7 8.95654V15C7 15.2653 7.10535 15.5195 7.29291 15.7072Z"
        fill="currentColor" />
    </g>
    <path id="twitter"
      d="M12 2C6.47708 2 2 6.47708 2 12C2 17.5229 6.47708 22 12 22C17.5229 22 22 17.5229 22 12C22 6.47708 17.5229 2 12 2ZM16.0677 10.1917C16.0719 10.2771 16.0729 10.3625 16.0729 10.4458C16.0729 13.05 14.0927 16.051 10.4698 16.051C9.39926 16.0528 8.35101 15.7454 7.45104 15.1656C7.60417 15.1844 7.76146 15.1917 7.92083 15.1917C8.84375 15.1917 9.69271 14.8781 10.3667 14.349C9.95596 14.3409 9.55799 14.2049 9.22824 13.9599C8.89849 13.7149 8.65338 13.3732 8.52708 12.9823C8.82204 13.0384 9.12589 13.0266 9.41562 12.9479C8.96984 12.8578 8.56896 12.6162 8.28095 12.2642C7.99294 11.9122 7.83553 11.4715 7.83542 11.0167V10.9927C8.10104 11.1396 8.40521 11.2292 8.72813 11.2396C8.31021 10.9614 8.01436 10.534 7.90109 10.0449C7.78782 9.55583 7.86568 9.04193 8.11875 8.60833C8.61349 9.21667 9.23048 9.71432 9.92976 10.0691C10.629 10.4238 11.395 10.6278 12.1781 10.6677C12.0786 10.2451 12.1214 9.80146 12.3 9.40573C12.4786 9.01 12.7829 8.68436 13.1657 8.47944C13.5485 8.27452 13.9882 8.20179 14.4166 8.27257C14.8449 8.34335 15.2379 8.55367 15.5344 8.87083C15.9752 8.78362 16.3979 8.62193 16.7844 8.39271C16.6375 8.8491 16.3299 9.23664 15.9187 9.48333C16.3092 9.4363 16.6905 9.33133 17.05 9.17187C16.7859 9.5676 16.4533 9.91296 16.0677 10.1917Z"
      fill="currentColor" />
  </defs>
</svg>