<svg viewBox="0 0 72 72" xmlns="http://www.w3.org/2000/svg">
  <defs>
    <g id="usa">
      <rect x="5" y="17" width="62" height="38" fill="#fff" />
      <rect x="5" y="17" width="62" height="5" fill="#d22f27" />
      <rect x="5" y="26" width="62" height="4" fill="#d22f27" />
      <rect x="5" y="34" width="62" height="4" fill="#d22f27" />
      <rect x="5" y="17" width="32" height="21" fill="#1e50a0" />
      <rect x="5" y="42" width="62" height="4" fill="#d22f27" />
      <circle cx="9.5" cy="22" r="1.75" fill="#fff" />
      <circle cx="17.5" cy="22" r="1.75" fill="#fff" />
      <circle cx="25.5" cy="22" r="1.75" fill="#fff" />
      <circle cx="33.5" cy="22" r="1.75" fill="#fff" />
      <circle cx="29.5" cy="26" r="1.75" fill="#fff" />
      <circle cx="21.5" cy="26" r="1.75" fill="#fff" />
      <circle cx="13.5" cy="26" r="1.75" fill="#fff" />
      <circle cx="9.5" cy="30" r="1.75" fill="#fff" />
      <circle cx="17.5" cy="30" r="1.75" fill="#fff" />
      <circle cx="25.5" cy="30" r="1.75" fill="#fff" />
      <circle cx="33.5" cy="30" r="1.75" fill="#fff" />
      <circle cx="29.5" cy="34" r="1.75" fill="#fff" />
      <circle cx="21.5" cy="34" r="1.75" fill="#fff" />
      <circle cx="13.5" cy="34" r="1.75" fill="#fff" />
      <rect x="5" y="50" width="62" height="5" fill="#d22f27" />
    </g>
    <g id="mexico">
      <rect x="5" y="17" width="62" height="38" fill="#fff" />
      <rect x="5" y="17" width="21" height="38" fill="#5c9e31" />
      <rect x="46" y="17" width="21" height="38" fill="#d22f27" />
      <circle cx="36" cy="35" r="3.5" fill="#a57939" stroke="#a57939" stroke-miterlimit="10" stroke-width="2" />
      <path fill="none" stroke="#5c9e31" stroke-linecap="round" stroke-linejoin="round" stroke-width="2"
        d="M30,39.4863a7.48,7.48,0,0,0,12,0" />
    </g>
  </defs>
</svg>