<svg width="24" height="24" viewBox="0 0 24 24" fill="none" xmlns="http://www.w3.org/2000/svg">
  <defs>
    <g id="external-link">
      <path
        d="M14.6853 4C14.0571 4 13.5478 4.50929 13.5478 5.13753C13.5478 5.76577 14.0571 6.27506 14.6853 6.27506H16.1162L10.3005 12.0908C9.85631 12.535 9.85631 13.2552 10.3005 13.6995C10.7448 14.1437 11.465 14.1437 11.9093 13.6995L17.7249 7.88377V9.31469C17.7249 9.94293 18.2342 10.4522 18.8625 10.4522C19.4907 10.4522 20 9.94293 20 9.31469V5.13753C20 4.50929 19.4907 4 18.8625 4H14.6853Z"
        fill="currentColor" />
      <path
        d="M5.13753 5.19347C4.50929 5.19347 4 5.70276 4 6.331V18.8625C4 19.4907 4.50929 20 5.13753 20H17.669C18.2972 20 18.8065 19.4907 18.8065 18.8625V12.2984C18.8065 11.6701 18.2972 11.1608 17.669 11.1608C17.0408 11.1608 16.5315 11.6701 16.5315 12.2984V17.7249H6.27506V7.46853H11.7016C12.3299 7.46853 12.8392 6.95924 12.8392 6.331C12.8392 5.70276 12.3299 5.19347 11.7016 5.19347H5.13753Z"
        fill="currentColor" />
    </g>
  </defs>
</svg>