<svg width="24" height="24" viewBox="0 0 24 24" fill="none" xmlns="http://www.w3.org/2000/svg">
  <defs>
    <g id="external-link">
      <path
        d="M14.6853 4C14.0571 4 13.5478 4.50929 13.5478 5.13753C13.5478 5.76577 14.0571 6.27506 14.6853 6.27506H16.1162L10.3005 12.0908C9.85631 12.535 9.85631 13.2552 10.3005 13.6995C10.7448 14.1437 11.465 14.1437 11.9093 13.6995L17.7249 7.88377V9.31469C17.7249 9.94293 18.2342 10.4522 18.8625 10.4522C19.4907 10.4522 20 9.94293 20 9.31469V5.13753C20 4.50929 19.4907 4 18.8625 4H14.6853Z"
        fill="currentColor" />
      <path
        d="M5.13753 5.19347C4.50929 5.19347 4 5.70276 4 6.331V18.8625C4 19.4907 4.50929 20 5.13753 20H17.669C18.2972 20 18.8065 19.4907 18.8065 18.8625V12.2984C18.8065 11.6701 18.2972 11.1608 17.669 11.1608C17.0408 11.1608 16.5315 11.6701 16.5315 12.2984V17.7249H6.27506V7.46853H11.7016C12.3299 7.46853 12.8392 6.95924 12.8392 6.331C12.8392 5.70276 12.3299 5.19347 11.7016 5.19347H5.13753Z"
        fill="currentColor" />
    </g>
    <path id="quotes"
      d="M5.3574 7.719C6.47945 6.57825 8.17732 6 10.403 6H11.2028V8.11425L10.5598 8.235C9.46411 8.4405 8.70195 8.84475 8.29408 9.438C8.08126 9.7576 7.96056 10.1235 7.94379 10.5H10.403C10.6151 10.5 10.8185 10.579 10.9685 10.7197C11.1185 10.8603 11.2028 11.0511 11.2028 11.25V16.5C11.2028 17.3273 10.4854 18 9.60327 18H4.80478C4.59267 18 4.38925 17.921 4.23927 17.7803C4.08929 17.6397 4.00503 17.4489 4.00503 17.25V13.5L4.00743 11.3108C4.00023 11.2275 3.84828 9.255 5.3574 7.719ZM18.4005 18H13.602C13.3899 18 13.1865 17.921 13.0365 17.7803C12.8865 17.6397 12.8023 17.4489 12.8023 17.25V13.5L12.8047 11.3108C12.7975 11.2275 12.6455 9.255 14.1546 7.719C15.2767 6.57825 16.9746 6 19.2003 6H20V8.11425L19.357 8.235C18.2613 8.4405 17.4992 8.84475 17.0913 9.438C16.8785 9.7576 16.7578 10.1235 16.741 10.5H19.2003C19.4124 10.5 19.6158 10.579 19.7658 10.7197C19.9157 10.8603 20 11.0511 20 11.25V16.5C20 17.3273 19.2826 18 18.4005 18Z"
      fill="currentColor" />
    <path id="menu" d="M3 18H21V16H3V18ZM3 13H21V11H3V13ZM3 6V8H21V6H3Z" fill="currentColor" />
    <g id="sun" clip-path="url(#a)">
      <path fill="currentColor"
        d="M12 5.25A6.75 6.75 0 1 0 18.75 12 6.76 6.76 0 0 0 12 5.25Zm0 11.25a4.5 4.5 0 1 1 0-9 4.5 4.5 0 0 1 0 9ZM10.875 2.625v-1.5a1.125 1.125 0 1 1 2.25 0v1.5a1.125 1.125 0 1 1-2.25 0Zm6.956 3.544a1.126 1.126 0 0 1 0-1.594l1.06-1.06a1.127 1.127 0 0 1 1.593 1.594l-1.059 1.06a1.124 1.124 0 0 1-.797.328 1.144 1.144 0 0 1-.797-.328ZM24 12a1.125 1.125 0 0 1-1.125 1.125h-1.5a1.125 1.125 0 1 1 0-2.25h1.5A1.125 1.125 0 0 1 24 12Zm-3.516 6.89a1.124 1.124 0 0 1 0 1.594 1.087 1.087 0 0 1-.797.328 1.124 1.124 0 0 1-.796-.328l-1.06-1.059a1.127 1.127 0 0 1 1.594-1.594l1.06 1.06Zm-7.359 2.485v1.5a1.125 1.125 0 1 1-2.25 0v-1.5a1.125 1.125 0 1 1 2.25 0Zm-6.956-3.544a1.127 1.127 0 0 1 0 1.594l-1.06 1.06a1.125 1.125 0 0 1-.796.328 1.086 1.086 0 0 1-.797-.329 1.125 1.125 0 0 1 0-1.593l1.059-1.06a1.126 1.126 0 0 1 1.594 0Zm-3.544-4.706h-1.5a1.125 1.125 0 1 1 0-2.25h1.5a1.125 1.125 0 1 1 0 2.25Zm.89-8.016A1.127 1.127 0 0 1 5.11 3.516l1.06 1.059A1.125 1.125 0 0 1 4.94 6.412a1.125 1.125 0 0 1-.366-.243l-1.06-1.06Z" />
    </g>
    <path id="moon" fill="currentColor"
      d="M21.384 13.978a1.125 1.125 0 0 0-1.087-.797 1.07 1.07 0 0 0-.31.057 7.5 7.5 0 0 1-9.215-9.226c.021-.085.034-.173.037-.262a1.125 1.125 0 0 0-.703-1.106 1.181 1.181 0 0 0-.74-.038 9.75 9.75 0 1 0 12.028 12.019 1.172 1.172 0 0 0-.01-.647ZM12 19.5A7.5 7.5 0 0 1 8.26 5.494 9.769 9.769 0 0 0 18.505 15.74 7.537 7.537 0 0 1 12 19.5Z" />
  </defs>
</svg>